<svg xmlns:xlink="http://www.w3.org/1999/xlink" xmlns="http://www.w3.org/2000/svg" viewBox="0 0 351 93.384173132197" preserveAspectRatio="xMidYMid meet" class="css-116ckqy" id="hahgbcdf" width="100"  height="26.60517753054046" ><defs id="SvgjsDefs1453"></defs><g id="SvgjsG1454" featurekey="symbolFeature-0" transform="matrix(1.0506174564361572,0,0,1.0506174564361572,-2.084706962625927,-9.490412414117735)" fill="#FFFFFF"><path xmlns="http://www.w3.org/2000/svg" d="M82.1,31c-2.4-1.8-4.9-3.5-7.5-5c0,0,0,0,0,0c-3.2-2.1-9.5-5.9-13.5-8.3c0,0,0,0,0,0c-1.8-1.1-3.8-2.5-3.8-2.5  c0.3-0.2,8.8-10.3,5-10.9c-0.2,0-0.5,0-0.7,0c-6.4-0.3-16.1,2.1-16.3,2.2C22.8,13,2.5,29.5,2,58.8c-0.2,9.9,1.5,21.4,5.5,29.6h6.8  c-0.9-2.3-2.5-5.3-3.1-7C8.5,72.8,8,65.8,8.5,56.6c1.1-22.3,16.8-38,34.2-44.1C44.1,12,54.8,8.8,55,9.1c1.1,1.5-6.7,5.8-6.6,6.9  c0,0.1,0,0.2,0,0.3v0c0,0,0,0,0,0c0,0.1,0.3,0.7,2.6,2c0,0,0,0,0,0c4.9,2.5,15.3,7.9,27.4,15.9c0.3,0.2,0.5,0.3,0.7,0.4  c0.2,0.1,0.4,0.3,0.5,0.4c0,0,0,0,0,0c0.1,0.1,0.2,0.1,0.2,0.2c0.3,0.3,0.7,0.6,1,0.9c1.2,1.2,2.8,3.8,1.6,5.9  c-0.9,1.6-3.3,1.8-5.8,1.5c-6.6-0.9-12-3.1-18-4.6c-3.7-0.9-9.4-2.2-12.6,0c-2.7,1.9-4.5,4.6-5.1,8.8l0,0c0,0-0.2,0.8-0.2,2.3  c0,0.1,0,0.2,0,0.2c0,3.4,0.6,9.7,4.9,16.5l0,0c0,0,0,0,0,0c0.5,0.8,1.1,1.7,1.8,2.6c2.1,3.1,5.7,8.2,8.2,11.9c0,0,0,0,0,0  c1.3,2.3,2.5,4.7,3.4,7h5.9c-1-7.4-10.5-19.5-11-20.1c-1.8-2.4-3.5-4.9-4.9-7.9c-1.6-3.4-3.4-7.5-2.5-12.4c0.4-2.2,1.2-3.9,2.9-4.7  c1.8-0.9,4.3-0.2,6.3,0.3c4,0.9,7.9,2.3,11.7,3.2c3.9,1,8.3,2,12.8,2c4.8,0,7.5-2.1,8.4-6.8c0-0.6,0-1.2,0-1.8  C88.1,35.6,85,33.3,82.1,31z" fill="#FFFFFF"></path></g><g id="SvgjsG1455" featurekey="nameFeature-0" transform="matrix(2.1883718967437744,0,0,2.1883718967437744,108.37391095436705,-12.763425180083232)" fill="#FFFFFF"><path d="M9.7076 40.073944 l-3.4417 -0.0766 l0.19164 -8.6332 l-2.1355 0.2859 l-2.5249 -0.16863 l-0.59712 -1.1506 l4.6352 -15.143 l0.59788 -0.027578 l0.47984 1.162 l0.47524 11.879 l-1.809 0.64312 l-1.2893 -0.24375 l0.032188 -1.2134 l0.96504 -2.7947 l0.5082 -0.04828 l-0.5082 2.9066 l0.55728 0.20391 l0.68144 -0.31582 l-0.35184 -3.0339 l-0.4392 -5.102 l-1.4771 6.7208 l-1.0218 3.1718 l2.0512 0.70212 l2.5479 -0.89376 l0 -9.9011 l-0.38324 -4.0244 l-1.6411 -1.5545 l0.4538 -1.6511 l2.6115 0.092736 z M20.8776 12.190000000000001 l3.4508 27.854 l-2.4912 0 l-0.89684 -6.5524 l-0.34953 -2.9028 l-0.22535 1.0103 c-0.87384 -0.10961 -3.9498 -0.17859 -3.9498 -0.17859 l-0.26445 8.4116 l-4.0312 0.21156 l0.4032 -1.714 l2.5816 -0.44688 l-2.4421 -0.14562 l2.0136 -8.556 l6.2977 0 l-1.5652 -11.978 l-2.1102 11.271 l-2.2658 0.17859 l3.6409 -16.462 l2.2038 0 z M34.372 35.0932 c0 0 2.5831 0.49216 2.4858 0.66768 c-0.096564 0.17398 -0.9696 3.1657 -0.9696 3.1657 l-3.4102 1.1184 l-3.5191 -1.1674 l-2.2965 -2.5946 l-0.72512 -3.8288 l-0.37711 -7.862 l1.057 -6.908 l1.8657 -4.022 s3.0461 -1.4763 3.3129 -1.4664 c0.26676 0.011484 3.9422 1.615 3.9422 1.615 l-0.16711 3.9161 l-1.9577 -0.083556 l0.3434 -1.7684 l-2.8568 -0.85392 l-1.8741 4.9864 c-0.23379 -1.658 -0.5074 -3.5053 -0.5074 -3.5053 l-0.42004 6.1092 l-0.12188 7.5304 l1.6457 5.7912 l-1.7017 -0.037578 l2.5778 0.60252 l1.7093 1.0478 l1.4694 -0.79104 z M49.77700000000001 40.043984 l-3.5926 -0.046016 l-4.9676 -14.092 l0.51432 14.024 l-0.47448 -0.02375 l-0.28438 -7.5692 l0.11039 7.5608 l-2.6024 -0.13109 l0.56108 -27.826 l2.8468 0.097344 l-0.58716 6.8904 l3.3941 -6.7944 l2.8369 0.097344 l-5.8632 10.382 l-0.50208 -0.7642 z M54.84840000000001 37.4202 l4.872 -0.25141 l0 2.7893 l-7.8032 0.08586 l0.20008 -11.168 l-0.71744 -16.712 l7.9916 -0.016094 l-0.21539 2.7273 l-5.6524 -0.14332 l1.6235 0.44228 l-0.93668 8.7436 l4.1048 0.25524 l0.12723 3.066 l-3.0745 0.10578 l-0.1993 -1.5591 z M65.05760000000001 29.447 l0.32719 10.55 l-2.6744 0.0030469 l-0.13184 -15.924 l3.8402 -0.19008 l1.8182 -2.6353 l0.37406 -3.5934 s-0.90984 -2.2038 -1.07 -2.252 c-0.1602 -0.04754 -2.7012 -0.01918 -2.8614 -0.06746 s-0.42768 2.4912 -0.42768 2.4912 l0 2.3471 s2.1125 0.21539 2.1125 0.072072 s0.1602 -1.9163 0.1602 -1.9163 s-0.85544 0.38324 -0.90908 0.23992 s-0.053672 -2.0121 -0.053672 -2.0121 l1.6588 0.6186 l0.21308 2.1554 l-0.64156 2.3478 l-4.6832 1.1889 l-0.34875 -10.664 l3.6954 0 l2.5663 0.86236 l2.0328 2.2995 l0.53504 3.6777 s-0.32117 3.2209 -0.53504 3.5084 s-1.2839 2.6828 -1.6043 2.7786 s-2.2106 1.2149 -2.2106 1.2149 l6.0892 13.398 l-3.4003 0.016875 z M86.94900000000001 40.043984 l-2.4919 -0.033008 l0 -15.873 l-3.1297 8.9428 l-2.1079 0.35106 l-1.3092 -5.174 l-1.2456 -5.6208 l0.65692 5.4224 l-0.27902 11.857 l-3.0822 -0.039102 c0 -0.53348 0.4676 -27.752 0.4676 -27.752 l2.0581 0 l3.4823 15.582 l-0.18934 2.899 l3.8157 -18.481 l2.6192 0 z M92.8084 37.4202 l4.872 -0.25141 l0 2.7893 l-7.8032 0.08586 l0.20008 -11.168 l-0.71744 -16.712 l7.9916 -0.016094 l-0.21539 2.7273 l-5.6524 -0.14332 l1.6235 0.44228 l-0.93668 8.7436 l4.1048 0.25524 l0.12723 3.066 l-3.0745 0.10578 l-0.1993 -1.5591 z M108.21920000000001 12.244 l2.6514 -0.27367 l-0.8148 28.074 l-2.3816 0 l-4.35 -21.367 l-0.0076564 21.175 l-2.8622 0.17172 l-0.33422 -26.139 c1.441 -0.25524 3.5958 -0.66916 3.5958 -0.66916 l-3.5958 0.16402 l0 -0.88074 l4.1384 -0.19547 c0.96812 5.0008 3.6732 15.908 3.6732 15.908 z" fill="#FFFFFF"></path></g></svg>